<?xml version="1.0" encoding="UTF-8" standalone="no"?>
<svg
   width="400px"
   height="400px"
   viewBox="0 0 100 100"
   version="1.1"
   id="svg35"
   sodipodi:docname="pluginIcon3.svg"
   inkscape:version="1.1.1 (3bf5ae0d25, 2021-09-20)"
   xmlns:inkscape="http://www.inkscape.org/namespaces/inkscape"
   xmlns:sodipodi="http://sodipodi.sourceforge.net/DTD/sodipodi-0.dtd"
   xmlns="http://www.w3.org/2000/svg"
   xmlns:svg="http://www.w3.org/2000/svg">
  <sodipodi:namedview
     id="namedview25"
     pagecolor="#ffffff"
     bordercolor="#666666"
     borderopacity="1.0"
     inkscape:pageshadow="2"
     inkscape:pageopacity="0.0"
     inkscape:pagecheckerboard="0"
     showgrid="false"
     inkscape:zoom="3.064338"
     inkscape:cx="200.20638"
     inkscape:cy="199.39054"
     inkscape:window-width="2880"
     inkscape:window-height="1706"
     inkscape:window-x="-11"
     inkscape:window-y="-11"
     inkscape:window-maximized="1"
     inkscape:current-layer="svg35" />
  <defs
     id="defs39" />
  <g
     fill="none"
     fill-rule="evenodd"
     id="g33"
     transform="matrix(3.6553661,2.8448813,-2.9169426,3.1608512,24.369665,10.862286)"
     style="opacity:1;fill:#3485fd;fill-opacity:1;stroke:none;stroke-width:0.0350925;stroke-miterlimit:4;stroke-dasharray:none;stroke-opacity:1">
    <path
       fill="#389fd6"
       d="m 6.4236434,2.2052368 c -0.1433253,0 -4.884989,-2.1063892 -4.6469621,2.6536718 0.050637,1.0126683 1.4514341,7.6622954 3.1222512,5.6537954 C 5.5096154,9.7782671 5.899734,9.4556959 5.9984283,9.2676239 6.0445415,9.2982562 6.0021876,9.3100105 5.685318,9 5.3967052,8.7176347 5.2884735,8.3594865 5.2039947,8.1434873 5.1738014,8.0662876 5.1372593,7.8115634 5.141922,7.4766685 5.145755,7.2013689 5.2078254,6.871893 5.224368,6.5423217 5.2398441,6.2339965 5.2046404,5.9255877 5.2039947,5.661377 5.2033058,5.3794587 5.2513714,4.0865482 5.5589253,3.4629736 5.6993587,3.1782407 5.8351933,2.9039875 5.9984283,2.6843979 6.2281333,2.3753908 6.464004,2.1746297 6.4236434,2.2052368 Z m 7.6688096,7.4710175 c -0.550312,0.05525 -0.922595,0.073532 -1.116849,0.054846 -0.417614,-0.040172 -0.669046,-0.2261226 -0.754296,-0.2365678 -0.198782,-0.024356 -0.385719,0.1856404 -0.41806,0.2365678 -0.07816,0.1230752 -0.196309,0.4767877 0,0.6319057 0.257139,0.203184 0.885866,0.190082 1.158803,0.125341 0.517007,-0.122637 0.893807,-0.393334 1.130402,-0.8120927 z m -0.219498,-4.47766 C 13.975287,4.7718132 14.096638,4.1710828 14.04485,3.660598 14.00308,3.2488739 13.813998,2.8958545 13.679408,2.7401496 13.570393,2.6140314 13.002173,2.0586089 12.388888,1.8258783 11.741283,1.5801238 11.043427,1.6605493 10.782951,1.6793319 10.526982,1.6977896 10.218062,1.7466384 9.8561931,1.8258783 10.360124,2.086822 10.706751,2.293148 10.896073,2.4448562 c 0.278034,0.2227943 0.747338,0.683636 1.051501,1.1476487 0.400031,0.6102629 0.572965,1.4379479 0.584942,1.5056234 0.04317,0.2439242 -0.133817,0.8645922 -0.145018,1.1332241 -0.01427,0.3421721 0.07712,0.7686476 0.145018,1.1808283 0.02525,0.1532845 0.04013,0.4919873 -0.06789,0.8199608 -0.05257,0.1596014 -0.178031,0.3736786 -0.376393,0.6422316 l 0.113305,0.1508328 C 12.553747,8.4965714 12.867533,7.9298436 13.142891,7.3250227 13.52249,6.4912379 13.781206,5.5812407 13.872955,5.1985943 Z M 7.867037,10.10148 c 0,-0.2761422 -0.1529826,-0.4702849 -0.429125,-0.4702849 -0.1436093,0 -0.4928818,0.3898259 -0.7427443,0.5605189 -0.2305912,0.157527 -1.1002487,0.419522 -1.0377428,0.478482 0.049747,0.04693 0.5213449,0.280206 0.963626,0.262131 0.096573,-0.0039 0.5529896,-0.04865 0.8502084,-0.230153 C 7.7462052,10.53427 7.867037,10.234177 7.867037,10.10148 Z"
       id="path25"
       style="fill:#3485fd;fill-opacity:1;stroke:none;stroke-width:0.0350925;stroke-miterlimit:4;stroke-dasharray:none;stroke-opacity:1" />
    <path
       fill="#389fd6"
       d="M 7,9.2567614 C 6.6704853,9.2129346 6.4410468,9.1588383 6.3116843,9.0944725 5.9558102,8.9174032 5.7189872,8.6078543 5.6012152,8.3359897 5.4556642,8 5.4487637,8 5.4487637,7.7104643 5.4487637,7.482443 5.4487637,7.5 5.5,7.0582509 5.5117194,6.9572087 5.5230057,6.6173091 5.5230057,6.0459156 5.5230057,5.9406491 5.5153371,5.7648839 5.5,5.51862 6.0744293,5.1287228 6.5885645,4.9752873 7.0424056,5.0583134 7.3499786,5.1145812 7.4497852,5.3783307 7.5,5.4809294 7.7091155,5.9081933 7.6562452,6.3586854 7.6562452,7 7.6562452,7.4504108 7.5,8 7.2951476,8.3690492 7.2051465,8.5311895 7.106764,8.8270936 7,9.2567614 Z M 6.8994697,6.0828367 C 7.0654258,6.1163596 7.2074745,5.9211003 7.2164794,5.8275576 7.2254843,5.7339231 7.0981477,5.6307828 6.9318428,5.5972599 6.7657916,5.5636911 6.6236794,5.6125519 6.6148965,5.7059568 c -0.00916,0.093635 0.1183317,0.3434948 0.2845732,0.3768799 z"
       id="path27"
       style="fill:#3485fd;fill-opacity:1;stroke:none;stroke-width:0.0350925;stroke-miterlimit:4;stroke-dasharray:none;stroke-opacity:1" />
    <path
       fill="#389fd6"
       d="m 7.5415212,8.5656642 c -0.083869,0.1446655 -0.107895,0.2954101 -0.1584091,0.4522336 -0.023786,0.073847 -0.065534,0.1676537 -0.1252435,0.2814211 0.1733589,0.02667 0.2943615,0.046666 0.363008,0.059987 0.1836453,0.035638 0.3089299,0.1320185 0.3426467,0.1956508 0.1783627,0.3366162 0.1487891,0.5258053 0.1622834,0.7666383 0.013494,0.240833 -0.046397,2.36478 0.098241,2.909579 0.048287,0.18188 0.09613,0.357488 0.1797,0.506201 0.1265316,0.225162 0.2918719,0.388667 0.3234146,0.418934 0.1354188,0.12994 0.5594493,0.386403 0.9985697,0.303389 0.2275475,-0.04302 0.718546,-0.297161 1.007051,-0.722323 0.324429,-0.478103 0.436772,-1.283204 0.479672,-1.597066 0.121525,-0.889086 0.190864,-1.793885 0.195892,-1.856785 0.01151,-0.143986 0.03787,-0.5145763 0.230958,-0.7692727 0.05915,-0.078026 0.192366,-0.14967 0.399642,-0.2149328 C 11.821286,9.0165803 11.677802,8.8193543 11.608496,8.7076407 11.332225,8.2623237 11.05162,7.6611504 10.980647,7.5243272 10.854861,7.2818349 10.782581,7.1074124 10.732783,7 10.5,6.4978911 10.398499,5.753551 10.412561,5.6491549 10.5,5 10.907611,4.7533164 11.329114,4.6899478 c 0.178788,-0.026879 0.442415,-0.026879 0.790882,0 C 11.96833,4.3372865 11.852691,4.0900472 11.773076,3.94823 11.570433,3.5872627 11.355188,3.3256719 11.212455,3.1634573 10.773873,2.6650137 10.22569,2.3234998 9.7779811,2.1389156 9.3035698,1.9433223 8.803338,1.8033862 8.3318156,1.8033862 c -0.6968182,0 -1.2737721,0.2115451 -1.7084328,0.5760801 C 6.0245321,2.8817018 5.7487437,3.6812595 5.6957788,4 c 0,0 -0.07443,0.2365046 -0.1219999,0.4947598 C 5.5402813,4.6766181 5.5156883,4.8893111 5.5,5.132839 5.8208016,4.9819789 6.0431496,4.8868127 6.1670441,4.8473403 6.5350579,4.7300922 6.7599542,4.7387384 6.8416164,4.7359805 7.1656948,4.7250357 7.7277956,5.0330007 7.8126122,5.4873602 7.8505241,5.6904532 7.9833196,6.6880723 7.9635233,6.9173991 7.9487007,7.0891093 7.9517359,7.3768094 7.8858698,7.6849568 7.8208263,7.9892552 7.6877159,8.3134934 7.5415212,8.5656642 Z"
       id="path29"
       style="fill:#3485fd;fill-opacity:1;stroke:none;stroke-width:0.0350925;stroke-miterlimit:4;stroke-dasharray:none;stroke-opacity:1" />
    <path
       fill="#389fd6"
       d="M 11.920572,8.6245774 C 11.868043,8.6658865 11.541079,7.9795619 11.266794,7.3869472 11.12091,7.0717538 10.989929,6.769597 10.923067,6.6472815 10.8814,6.5710553 10.764494,6.2607311 10.725207,5.96654 c -0.03295,-0.2467771 0.0036,-0.4822023 0.04004,-0.5585803 0.07411,-0.1553594 0.231508,-0.2835929 0.282955,-0.3126158 0.163277,-0.092108 0.361881,-0.1211246 0.4518,-0.1211246 0.04612,0 0.156264,-0.012954 0.330423,0 0.07959,0.00592 0.229057,0.02432 0.448401,0.0552 -0.01746,0.190763 -0.03426,0.3272577 -0.05039,0.4094843 C 12.182411,5.6735446 12.118123,5.8605767 12.118123,6 c 0,0.1013504 -0.03826,0.2542953 -0.02787,0.4364852 0.0055,0.095983 0.05335,0.3370225 0.06534,0.465775 0.0231,0.2480211 0.101592,0.728306 0.07285,0.9314263 -0.02875,0.2031202 -0.227399,0.7276108 -0.307866,0.7908909 z M 11.753378,5.5985746 v 4.6e-5 c -0.009,-0.093454 -0.151022,-0.142271 -0.317137,-0.1087468 -0.166114,0.033524 -0.293483,0.1366683 -0.2847,0.2303062 0.0091,0.093546 0.151149,0.2888128 0.317232,0.2552887 0.166273,-0.033386 0.29361,-0.2832561 0.284605,-0.3768941 z"
       id="path31"
       style="fill:#3485fd;fill-opacity:1;stroke:none;stroke-width:0.0350925;stroke-miterlimit:4;stroke-dasharray:none;stroke-opacity:1" />
  </g>
  <path
     fill="#59a869"
     fill-rule="evenodd"
     d="m 76.639502,34.931379 -0.87188,0.778519 c -0.604842,0.540576 -1.268136,0.960044 -1.952187,1.324915 l 2.317832,2.581565 -2.61502,2.336263 -3.433648,-3.824354 c -2.65147,0.217124 -5.305248,-0.660082 -7.132351,-2.695073 -1.827104,-2.034974 -2.409795,-4.762529 -1.902355,-7.367643 l -3.597229,-4.006539 2.615,-2.336285 2.481405,2.763742 c 0.438677,-0.638161 0.929547,-1.249672 1.534486,-1.790137 l 0.871658,-0.778761 -2.272558,-2.531124 2.614989,-2.336289 2.272557,2.531124 1.743331,-1.557525 c 0.298073,-0.26636 0.626081,-0.471418 0.946159,-0.695803 l -2.347043,-2.614084 2.614996,-2.336282 3.088974,3.440453 c 1.696304,-0.395672 3.436978,-0.315025 5.031811,0.23305 l 0.395614,-4.472271 3.399268,0.07339 -0.570158,6.419376 c 0.08088,0.08312 0.08593,0.061 0.163335,0.147237 0.02768,0.03089 0.118763,0.160659 0.145006,0.192936 l 6.442395,0.124873 -0.300061,3.378464 -4.373244,-0.09441 c 0.421231,1.69039 0.318831,3.493913 -0.283045,5.192518 l 2.925411,3.258256 -2.6147,2.335995 -2.183459,-2.431894 c -0.258798,0.292685 -0.499093,0.595375 -0.797202,0.861703 l -1.743326,1.557536 2.108978,2.348938 -2.615014,2.336258 z m -3.228196,-13.843232 -2.428216,2.169416 4.819668,5.368083 2.428199,-2.169427 z m -4.856426,4.338813 -2.428212,2.169413 4.819672,5.368086 2.428201,-2.16943 z"
     id="path129"
     style="fill:#28a745;fill-opacity:1;stroke:none;stroke-width:0.185172;stroke-miterlimit:4;stroke-dasharray:none;stroke-opacity:1" />
  <circle
     id="path7713"
     style="fill:#28a745;stroke:#073984;stroke-width:0.25"
     cx="105.56329"
     cy="46.453407"
     r="0.018525731" />
  <circle
     id="path7715"
     style="fill:#28a745;stroke:#073984;stroke-width:0.25"
     cx="105.56329"
     cy="46.453407"
     r="0.018525731" />
  <ellipse
     style="fill:#4b4b4b;fill-opacity:1;stroke:none;stroke-width:0.168596;stroke-opacity:1"
     id="path9674-0"
     cx="-72.453224"
     cy="-0.61463791"
     rx="1.5749091"
     ry="3.005893"
     transform="matrix(-0.99656139,-0.08285771,-0.19293014,-0.9812125,0,0)"
     inkscape:transform-center-x="5.7023644"
     inkscape:transform-center-y="1.9471488" />
  <ellipse
     style="fill:#4b4b4b;fill-opacity:1;stroke:none;stroke-width:0.138398;stroke-opacity:1"
     id="path9674-0-4"
     cx="-86.862434"
     cy="3.1885467"
     rx="1.260251"
     ry="2.5312543"
     transform="matrix(-0.99203144,-0.12599057,0.32434501,-0.94593885,0,0)" />
  <ellipse
     style="fill:#4b4b4b;fill-opacity:1;stroke:none;stroke-width:0.144538;stroke-opacity:1"
     id="path9674-0-4-3"
     cx="20.930687"
     cy="52.062187"
     rx="1.1781603"
     ry="2.953212"
     transform="matrix(0.62622297,-0.77964402,0.82313463,0.56784626,0,0)"
     inkscape:transform-center-x="-1.4428024"
     inkscape:transform-center-y="3.1390226" />
  <ellipse
     style="fill:#4b4b4b;fill-opacity:1;stroke:none;stroke-width:0.165501;stroke-opacity:1"
     id="path9674-0-4-3-6"
     cx="12.572744"
     cy="94.481903"
     rx="1.6198555"
     ry="2.8161976"
     transform="matrix(-0.02054547,0.99978892,0.99189373,0.12707019,0,0)"
     inkscape:transform-center-x="4.867872"
     inkscape:transform-center-y="2.0862309" />
  <circle
     id="path10251"
     style="fill:#28a745;stroke:#073984;stroke-width:0.25"
     cx="92.211403"
     cy="41.863701"
     r="0.018671591" />
  <circle
     id="path10253"
     style="fill:#28a745;stroke:#073984;stroke-width:0.25"
     cx="92.211403"
     cy="41.863701"
     r="0.018671591" />
  <circle
     id="path10255"
     style="fill:#28a745;stroke:#073984;stroke-width:0.25"
     cx="95.27121"
     cy="44.089012"
     r="0.018671591" />
  <path
     style="fill:none;fill-opacity:1;stroke:#4d4d4d;stroke-width:1.89525;stroke-linecap:round;stroke-linejoin:miter;stroke-miterlimit:4;stroke-dasharray:none;stroke-opacity:1"
     d="m 50.203936,37.532371 c 0.465595,1.079831 1.177734,1.966482 2.016273,2.510367 0.838539,0.543884 1.800006,0.742749 2.722192,0.563047 0.922185,-0.179703 1.801273,-0.737232 2.488951,-1.578524 0.687678,-0.841293 1.1811,-1.962868 1.397021,-3.175503 0.174616,-0.980666 0.168033,-2.025253 -0.05843,-2.986763 -0.226456,-0.961512 -0.677659,-1.834558 -1.294181,-2.414364 -0.467812,-0.439954 -1.036022,-0.70878 -1.607366,-0.676209 -0.285673,0.01628 -0.569659,0.107642 -0.826133,0.276725 -0.256473,0.169084 -0.484893,0.416499 -0.655448,0.723476 -0.301606,0.542849 -0.409108,1.256768 -0.334441,1.925698 0.07467,0.668931 0.322037,1.291784 0.659732,1.795177 0.675388,1.006785 1.665339,1.518178 2.635577,1.899573 0.313496,0.123233 0.629569,0.236754 0.950907,0.315987 1.729552,0.42646 3.589047,-0.205244 4.956869,-1.683941"
     id="path11812" />
</svg>
