<?xml version="1.0" encoding="UTF-8" standalone="no"?>
<svg
   width="400px"
   height="400px"
   viewBox="0 0 100 100"
   version="1.1"
   id="svg35"
   xmlns="http://www.w3.org/2000/svg"
   xmlns:svg="http://www.w3.org/2000/svg">
  <defs
     id="defs39" />
  <g
     fill="none"
     fill-rule="evenodd"
     id="g33"
     transform="matrix(7.680756,0,0,7.5180342,-11.811661,-10.766121)"
     style="stroke:none;stroke-opacity:1;stroke-width:0.03509252;stroke-miterlimit:4;stroke-dasharray:none;fill-opacity:1;opacity:1;fill:#5a9cfe">
    <path
       fill="#389fd6"
       d="m 6.4236434,2.2052368 c -0.1433253,0 -4.884989,-2.1063892 -4.6469621,2.6536718 0.050637,1.0126683 1.4514341,7.6622954 3.1222512,5.6537954 C 5.5096154,9.7782671 5.899734,9.4556959 5.9984283,9.2676239 6.0445415,9.2982562 6.0021876,9.3100105 5.685318,9 5.3967052,8.7176347 5.2884735,8.3594865 5.2039947,8.1434873 5.1738014,8.0662876 5.1372593,7.8115634 5.141922,7.4766685 5.145755,7.2013689 5.2078254,6.871893 5.224368,6.5423217 5.2398441,6.2339965 5.2046404,5.9255877 5.2039947,5.661377 5.2033058,5.3794587 5.2513714,4.0865482 5.5589253,3.4629736 5.6993587,3.1782407 5.8351933,2.9039875 5.9984283,2.6843979 6.2281333,2.3753908 6.464004,2.1746297 6.4236434,2.2052368 Z m 7.6688096,7.4710175 c -0.550312,0.05525 -0.922595,0.073532 -1.116849,0.054846 -0.417614,-0.040172 -0.669046,-0.2261226 -0.754296,-0.2365678 -0.198782,-0.024356 -0.385719,0.1856404 -0.41806,0.2365678 -0.07816,0.1230752 -0.196309,0.4767877 0,0.6319057 0.257139,0.203184 0.885866,0.190082 1.158803,0.125341 0.517007,-0.122637 0.893807,-0.393334 1.130402,-0.8120927 z m -0.219498,-4.47766 C 13.975287,4.7718132 14.096638,4.1710828 14.04485,3.660598 14.00308,3.2488739 13.813998,2.8958545 13.679408,2.7401496 13.570393,2.6140314 13.002173,2.0586089 12.388888,1.8258783 11.741283,1.5801238 11.043427,1.6605493 10.782951,1.6793319 10.526982,1.6977896 10.218062,1.7466384 9.8561931,1.8258783 10.360124,2.086822 10.706751,2.293148 10.896073,2.4448562 c 0.278034,0.2227943 0.747338,0.683636 1.051501,1.1476487 0.400031,0.6102629 0.572965,1.4379479 0.584942,1.5056234 0.04317,0.2439242 -0.133817,0.8645922 -0.145018,1.1332241 -0.01427,0.3421721 0.07712,0.7686476 0.145018,1.1808283 0.02525,0.1532845 0.04013,0.4919873 -0.06789,0.8199608 -0.05257,0.1596014 -0.178031,0.3736786 -0.376393,0.6422316 l 0.113305,0.1508328 C 12.553747,8.4965714 12.867533,7.9298436 13.142891,7.3250227 13.52249,6.4912379 13.781206,5.5812407 13.872955,5.1985943 Z M 7.867037,10.10148 c 0,-0.2761422 -0.1529826,-0.4702849 -0.429125,-0.4702849 -0.1436093,0 -0.4928818,0.3898259 -0.7427443,0.5605189 -0.2305912,0.157527 -1.1002487,0.419522 -1.0377428,0.478482 0.049747,0.04693 0.5213449,0.280206 0.963626,0.262131 0.096573,-0.0039 0.5529896,-0.04865 0.8502084,-0.230153 C 7.7462052,10.53427 7.867037,10.234177 7.867037,10.10148 Z"
       id="path25"
       style="stroke:none;stroke-opacity:1;stroke-width:0.03509252;stroke-miterlimit:4;stroke-dasharray:none;fill-opacity:1;fill:#5a9cfe" />
    <path
       fill="#389fd6"
       d="M 7,9.2567614 C 6.6704853,9.2129346 6.4410468,9.1588383 6.3116843,9.0944725 5.9558102,8.9174032 5.7189872,8.6078543 5.6012152,8.3359897 5.4556642,8 5.4487637,8 5.4487637,7.7104643 5.4487637,7.482443 5.4487637,7.5 5.5,7.0582509 5.5117194,6.9572087 5.5230057,6.6173091 5.5230057,6.0459156 5.5230057,5.9406491 5.5153371,5.7648839 5.5,5.51862 6.0744293,5.1287228 6.5885645,4.9752873 7.0424056,5.0583134 7.3499786,5.1145812 7.4497852,5.3783307 7.5,5.4809294 7.7091155,5.9081933 7.6562452,6.3586854 7.6562452,7 7.6562452,7.4504108 7.5,8 7.2951476,8.3690492 7.2051465,8.5311895 7.106764,8.8270936 7,9.2567614 Z M 6.8994697,6.0828367 C 7.0654258,6.1163596 7.2074745,5.9211003 7.2164794,5.8275576 7.2254843,5.7339231 7.0981477,5.6307828 6.9318428,5.5972599 6.7657916,5.5636911 6.6236794,5.6125519 6.6148965,5.7059568 c -0.00916,0.093635 0.1183317,0.3434948 0.2845732,0.3768799 z"
       id="path27"
       style="stroke:none;stroke-opacity:1;stroke-width:0.03509252;stroke-miterlimit:4;stroke-dasharray:none;fill-opacity:1;fill:#5a9cfe" />
    <path
       fill="#389fd6"
       d="m 7.5415212,8.5656642 c -0.083869,0.1446655 -0.107895,0.2954101 -0.1584091,0.4522336 -0.023786,0.073847 -0.065534,0.1676537 -0.1252435,0.2814211 0.1733589,0.02667 0.2943615,0.046666 0.363008,0.059987 0.1836453,0.035638 0.3089299,0.1320185 0.3426467,0.1956508 0.1783627,0.3366162 0.1487891,0.5258053 0.1622834,0.7666383 0.013494,0.240833 -0.046397,2.36478 0.098241,2.909579 0.048287,0.18188 0.09613,0.357488 0.1797,0.506201 0.1265316,0.225162 0.2918719,0.388667 0.3234146,0.418934 0.1354188,0.12994 0.5594493,0.386403 0.9985697,0.303389 0.2275475,-0.04302 0.718546,-0.297161 1.007051,-0.722323 0.324429,-0.478103 0.436772,-1.283204 0.479672,-1.597066 0.121525,-0.889086 0.190864,-1.793885 0.195892,-1.856785 0.01151,-0.143986 0.03787,-0.5145763 0.230958,-0.7692727 0.05915,-0.078026 0.192366,-0.14967 0.399642,-0.2149328 C 11.821286,9.0165803 11.677802,8.8193543 11.608496,8.7076407 11.332225,8.2623237 11.05162,7.6611504 10.980647,7.5243272 10.854861,7.2818349 10.782581,7.1074124 10.732783,7 10.5,6.4978911 10.398499,5.753551 10.412561,5.6491549 10.5,5 10.907611,4.7533164 11.329114,4.6899478 c 0.178788,-0.026879 0.442415,-0.026879 0.790882,0 C 11.96833,4.3372865 11.852691,4.0900472 11.773076,3.94823 11.570433,3.5872627 11.355188,3.3256719 11.212455,3.1634573 10.773873,2.6650137 10.22569,2.3234998 9.7779811,2.1389156 9.3035698,1.9433223 8.803338,1.8033862 8.3318156,1.8033862 c -0.6968182,0 -1.2737721,0.2115451 -1.7084328,0.5760801 C 6.0245321,2.8817018 5.7487437,3.6812595 5.6957788,4 c 0,0 -0.07443,0.2365046 -0.1219999,0.4947598 C 5.5402813,4.6766181 5.5156883,4.8893111 5.5,5.132839 5.8208016,4.9819789 6.0431496,4.8868127 6.1670441,4.8473403 6.5350579,4.7300922 6.7599542,4.7387384 6.8416164,4.7359805 7.1656948,4.7250357 7.7277956,5.0330007 7.8126122,5.4873602 7.8505241,5.6904532 7.9833196,6.6880723 7.9635233,6.9173991 7.9487007,7.0891093 7.9517359,7.3768094 7.8858698,7.6849568 7.8208263,7.9892552 7.6877159,8.3134934 7.5415212,8.5656642 Z"
       id="path29"
       style="stroke:none;stroke-opacity:1;stroke-width:0.03509252;stroke-miterlimit:4;stroke-dasharray:none;fill-opacity:1;fill:#5a9cfe" />
    <path
       fill="#389fd6"
       d="M 11.920572,8.6245774 C 11.868043,8.6658865 11.541079,7.9795619 11.266794,7.3869472 11.12091,7.0717538 10.989929,6.769597 10.923067,6.6472815 10.8814,6.5710553 10.764494,6.2607311 10.725207,5.96654 c -0.03295,-0.2467771 0.0036,-0.4822023 0.04004,-0.5585803 0.07411,-0.1553594 0.231508,-0.2835929 0.282955,-0.3126158 0.163277,-0.092108 0.361881,-0.1211246 0.4518,-0.1211246 0.04612,0 0.156264,-0.012954 0.330423,0 0.07959,0.00592 0.229057,0.02432 0.448401,0.0552 -0.01746,0.190763 -0.03426,0.3272577 -0.05039,0.4094843 C 12.182411,5.6735446 12.118123,5.8605767 12.118123,6 c 0,0.1013504 -0.03826,0.2542953 -0.02787,0.4364852 0.0055,0.095983 0.05335,0.3370225 0.06534,0.465775 0.0231,0.2480211 0.101592,0.728306 0.07285,0.9314263 -0.02875,0.2031202 -0.227399,0.7276108 -0.307866,0.7908909 z M 11.753378,5.5985746 v 4.6e-5 c -0.009,-0.093454 -0.151022,-0.142271 -0.317137,-0.1087468 -0.166114,0.033524 -0.293483,0.1366683 -0.2847,0.2303062 0.0091,0.093546 0.151149,0.2888128 0.317232,0.2552887 0.166273,-0.033386 0.29361,-0.2832561 0.284605,-0.3768941 z"
       id="path31"
       style="stroke:none;stroke-opacity:1;stroke-width:0.03509252;stroke-miterlimit:4;stroke-dasharray:none;fill-opacity:1;fill:#5a9cfe" />
  </g>
  <path
     fill="#59a869"
     fill-rule="evenodd"
     d="m 32.452672,82.0178 v 1.762881 c 0,1.223449 -0.177359,2.390477 -0.429888,3.525787 h 4.770811 v 5.288661 h -7.067529 c -2.206535,3.194351 -5.537387,5.288658 -9.298121,5.288658 -3.760732,0 -7.091577,-2.094307 -9.298115,-5.288658 H 3.7256073 v -5.288661 h 5.107502 c -0.25252,-1.13531 -0.429885,-2.302338 -0.429885,-3.525787 V 82.0178 h -4.677617 v -5.288658 h 4.677619 v -3.52578 c 0,-0.602889 0.09018,-1.177608 0.153318,-1.762896 h -4.830929 v -5.288658 h 6.3580727 c 1.148359,-2.302333 2.825808,-4.174517 4.848969,-5.412068 l -4.223685,-4.950191 3.18956,-3.740842 6.060458,7.107959 c 0.159329,-0.0069 0.141302,-0.03496 0.300629,-0.03496 0.0571,0 0.273567,0.02858 0.330683,0.0317 l 6.030393,-7.10408 3.189558,3.74085 -4.103438,4.812687 c 2.119358,1.230496 3.874969,3.162621 5.065414,5.549569 h 6.021377 v 5.288027 h -4.494241 c 0.06314,0.585335 0.153316,1.159991 0.153316,1.762894 v 3.525782 h 4.340917 v 5.288654 z M 15.299402,71.692307 v 4.910912 H 25.2198 v -4.910912 z m 0,9.821805 v 4.910909 H 25.2198 v -4.910909 z"
     id="path129"
     style="fill:#4ab563;fill-opacity:1;stroke:none;stroke-width:0.266667;stroke-miterlimit:4;stroke-dasharray:none;stroke-opacity:1" />
</svg>
